<svg width="2560" height="1617" viewBox="0 0 2560 1617" fill="none" xmlns="http://www.w3.org/2000/svg">
<g clip-path="url(#clip0_58_2)">
<mask id="mask0_58_2" style="mask-type:alpha" maskUnits="userSpaceOnUse" x="0" y="0" width="2560" height="1617">
<path d="M0 0H2560V1617H0V0Z" fill="white"/>
</mask>
<g mask="url(#mask0_58_2)">
<path d="M1927.45 463.986C1670.6 347.402 1654.85 174.327 1679.08 102.362C1707.4 164.95 1728.08 162.181 1741.8 126.416C1753.74 95.2915 1776.13 61.6957 1799.8 51.1509C1692.66 263.94 1838.6 409.892 1927.45 463.986Z" fill="#A9DAD1"/>
<path d="M1971.11 185.823C1917.8 287.62 1937.12 413.983 1953.44 464.439C1937.59 263.935 2049.85 127.878 2134.19 169.884C2166.14 185.796 2189.81 199.739 2175.92 254.859C2158.85 322.632 2062.34 423.362 2014.87 470.16C2056.17 435.857 2157.54 365.415 2232.66 358.074C2307.77 350.732 2308.31 390.259 2299.19 410.94C2292.23 435.81 2250.03 488.267 2136.94 499.139C2023.84 510.01 2029.56 515.045 2046.56 516.204C2120.46 529.685 2327.15 600.034 2375.39 657.183C2413.98 702.901 2359.61 789.27 2327.6 826.739C2331.92 828.396 2350.62 822.843 2390.86 787.38C2431.1 751.917 2429.38 823.361 2423.5 863.515C2434.49 856.038 2469.51 800.896 2469.22 744.3C2468.71 646.681 2396.35 589.513 2344.05 563.708C2284.56 534.351 2172.35 524.613 2116.71 519.325C2182.45 512.235 2313.89 487.332 2356.01 441.057C2403.7 388.67 2388.4 341.105 2339.12 326.963C2283.63 311.037 2194.67 337.756 2156.13 356.074C2170.24 343.054 2204.89 298.076 2230.61 222.323C2262.77 127.633 2187.35 80.873 2154.91 75.5632C2132.93 71.9671 2037.75 58.5764 1971.11 185.823Z" fill="#A9DAD1"/>
<path d="M1927.45 463.986C1670.6 347.402 1654.85 174.327 1679.08 102.362C1707.4 164.95 1728.08 162.181 1741.8 126.416C1753.74 95.2915 1776.13 61.6957 1799.8 51.1509C1692.66 263.94 1838.6 409.892 1927.45 463.986Z" stroke="#A9DAD1"/>
<path d="M1971.11 185.823C1917.8 287.62 1937.12 413.983 1953.44 464.439C1937.59 263.935 2049.85 127.878 2134.19 169.884C2166.14 185.796 2189.81 199.739 2175.92 254.859C2158.85 322.632 2062.34 423.362 2014.87 470.16C2056.17 435.857 2157.54 365.415 2232.66 358.074C2307.77 350.732 2308.31 390.259 2299.19 410.94C2292.23 435.81 2250.03 488.267 2136.94 499.139C2023.84 510.01 2029.56 515.045 2046.56 516.204C2120.46 529.685 2327.15 600.034 2375.39 657.183C2413.98 702.901 2359.61 789.27 2327.6 826.739C2331.92 828.396 2350.62 822.843 2390.86 787.38C2431.1 751.917 2429.38 823.361 2423.5 863.515C2434.49 856.038 2469.51 800.896 2469.22 744.3C2468.71 646.681 2396.35 589.513 2344.05 563.708C2284.56 534.351 2172.35 524.613 2116.71 519.325C2182.45 512.235 2313.89 487.332 2356.01 441.057C2403.7 388.67 2388.4 341.105 2339.12 326.963C2283.63 311.037 2194.67 337.756 2156.13 356.074C2170.24 343.054 2204.89 298.076 2230.61 222.323C2262.77 127.633 2187.35 80.873 2154.91 75.5632C2132.93 71.9671 2037.75 58.5764 1971.11 185.823Z" stroke="#A9DAD1"/>
<path d="M737.806 592.06L394.727 444L274.323 722.995L617.402 871.055L737.806 592.06Z" fill="#FFD8B6"/>
<path d="M1052.54 1197.03L712.482 1050.27L555.507 1414L895.567 1560.76L1052.54 1197.03Z" fill="#A7DBD6"/>
<path d="M333.074 832.77L124 1313.48L473.413 1465.45L682.487 984.74L333.074 832.77Z" fill="#FFA495"/>
<path d="M810.408 532.929L632.383 942.25L990.192 1097.87L1168.22 688.551L810.408 532.929Z" fill="#E37292"/>
</g>
<rect x="-126" width="2867" height="1692" fill="#D9D9D9" fill-opacity="0.3"/>
</g>
<defs>
<clipPath id="clip0_58_2">
<rect width="2560" height="1617" fill="white"/>
</clipPath>
</defs>
</svg>
