<svg width="1405" height="1407" viewBox="0 0 1405 1407" fill="none" xmlns="http://www.w3.org/2000/svg">
<mask id="mask0_19_12" style="mask-type:alpha" maskUnits="userSpaceOnUse" x="0" y="0" width="1405" height="1407">
<rect width="1405" height="1407" transform="matrix(-1 0 0 1 1405 0)" fill="#D9D9D9"/>
</mask>
<g mask="url(#mask0_19_12)">
<path d="M660.501 447C387.721 437.666 295 307 269.001 187.5C342 249 342.947 251.912 342 216.5C341.123 183.685 349.763 128.507 367 110C360 385.131 545 417 660.501 447Z" fill="#A8D9CF"/>
<path d="M571.729 181.773C561.846 294.472 632.501 414.5 670.501 451.303C582.001 233.5 618.556 114.573 709 103C763.706 95.9999 790.5 112.553 790.5 177C790.5 245.807 734.072 383.039 709 443.5C733.184 396.735 822.094 271.608 873.5 243C931 211 948.895 240.779 948.415 263.031C951.419 288.281 937.263 360.309 836.132 404.389C728.5 451.303 732.5 458.376 761.694 453.956C829 451.303 1033.84 410.899 1100 460C1157 502.302 1142.74 584.498 1128.03 630.646C1132.51 630.526 1153.56 603.083 1178.5 567C1202 533 1211 595 1227.37 627.991C1234.42 617.047 1245.26 553.686 1224.01 502.302C1187.35 413.674 1101.48 388.913 1045.17 385.131C981.117 380.827 877.231 414.228 825.542 430.375C919.5 385.131 999.519 324.968 1020 267C1043.19 201.373 1002.24 165.892 952.957 171.584C897.456 177.994 839.645 231.85 812 263.031C831.28 225.539 830.5 171.584 825.542 110C817.64 11.8452 725.968 12.1099 695 19.5C674.028 24.5048 584.084 40.8983 571.729 181.773Z" fill="#A8D9CF"/>
<rect x="309.529" y="468.929" width="319.859" height="252.818" transform="rotate(13.2318 309.529 468.929)" fill="#FFD8B6"/>
<rect x="663.817" y="930.763" width="319.918" height="320.072" transform="rotate(13.8227 663.817 930.763)" fill="#A7DBD6"/>
<path d="M230 1225.5L334.264 802L642.089 877.786L537.825 1301.28L230 1225.5Z" fill="#FFA495"/>
<rect x="582.646" y="844.103" width="377.035" height="324.635" transform="rotate(-76.1689 582.646 844.103)" fill="#E37292"/>
<path d="M248 582V751H252.5C251.7 631.4 326.5 593.5 374.5 591H464.5V939.5C433.167 948.333 369.9 990.6 367.5 1089C365.1 1187.4 428.167 1239.67 460 1253.5H400.5V1262.5H720C947.5 1245 1050.72 1036.62 1046.5 847.5C1041 601 849 498 707.5 493H248V504C385.167 502.167 672.8 499.6 726 504C792.5 509.5 944.5 631.5 944.5 855.5C954 1192.5 764.5 1244 740.5 1249C719.119 1253.45 722.5 1252 691 1253.5L587 1254.5C621.8 1239.3 637.333 1231.5 639.5 1228.5V1205C631 1212.5 472 1268.5 437.5 1138C409.667 1032.72 470.167 973.333 501 957.5C578.2 960.3 599.833 1025.33 601 1057.5H433L431 1080.5H659.5C657.5 960.1 583 924 546 921V591H644.5C740.9 609 762.333 705.167 760 751H765.5V582H248Z" fill="#333E80"/>
<path d="M426 1080H433.5L434.5 1058H431.5L429 1059L426 1080Z" fill="#333E80" stroke="#333E80"/>
</g>
</svg>
